<svg width="20" height="21" viewBox="0 0 20 21" fill="none" xmlns="http://www.w3.org/2000/svg">
<g clip-path="url(#clip0)">
<rect y="0.888672" width="20" height="20" rx="10" fill="#333333"/>
<path fill-rule="evenodd" clip-rule="evenodd" d="M0.5 10.8887C0.5 16.1354 4.75329 20.3887 10 20.3887C15.2467 20.3887 19.5 16.1354 19.5 10.8887C19.5 5.64197 15.2467 1.38867 10 1.38867C4.75329 1.38867 0.5 5.64197 0.5 10.8887ZM10 0.888672C4.47715 0.888672 0 5.36582 0 10.8887C0 16.4115 4.47715 20.8887 10 20.8887C15.5228 20.8887 20 16.4115 20 10.8887C20 5.36582 15.5228 0.888672 10 0.888672Z" fill="#99CEFA"/>
<path fill-rule="evenodd" clip-rule="evenodd" d="M1.5 10.8887C1.5 15.5831 5.30558 19.3887 10 19.3887C14.6944 19.3887 18.5 15.5831 18.5 10.8887C18.5 6.19425 14.6944 2.38867 10 2.38867C5.30558 2.38867 1.5 6.19425 1.5 10.8887ZM10 1.88867C5.02944 1.88867 1 5.91811 1 10.8887C1 15.8592 5.02944 19.8887 10 19.8887C14.9706 19.8887 19 15.8592 19 10.8887C19 5.91811 14.9706 1.88867 10 1.88867Z" fill="#99CEFA"/>
<g clip-path="url(#clip1)">
<path d="M9.20801 15.5559C9.31676 15.5044 9.42546 15.4312 9.52349 15.3332C9.83196 15.0249 9.91387 14.2232 9.91387 14.2232C9.91387 14.2232 9.11213 14.3053 8.80407 14.6136C8.58932 14.8283 8.48409 15.0917 8.50532 15.2996C7.51161 14.8106 7.2609 14.2691 7.08197 13.8756C7.09208 13.8895 7.05844 13.842 7.10455 13.9062C6.91062 13.4783 6.8056 13.0421 6.88533 12.578C6.94018 12.3206 7.01641 12.1201 7.10628 11.9558C7.35174 12.3351 7.76875 12.6046 8.07197 12.7602C8.1128 12.7812 8.16279 12.7729 8.19489 12.7396C8.22675 12.7065 8.23338 12.6564 8.21082 12.6161C7.9346 12.1211 7.95972 11.531 8.01535 11.1635C8.13166 11.097 8.24564 11.0278 8.35163 10.9414C9.15958 10.2837 9.50365 8.94417 8.90224 8.35716C8.30128 7.76997 6.76182 8.21439 6.1748 8.81538L6.15731 8.83327C5.90347 9.09295 5.67745 9.36059 5.48414 9.64065C5.15778 9.71784 4.75826 9.75676 4.37239 9.63269C4.32863 9.61847 4.28059 9.63484 4.25452 9.67278C4.22825 9.71048 4.22982 9.76123 4.2584 9.79725C4.43384 10.0178 4.70168 10.299 5.02628 10.4848C4.76643 11.1236 4.66723 11.834 4.78238 12.6607C5.18189 15.1814 7.20797 15.9527 8.5008 15.775L8.50859 15.774C8.46909 15.9868 8.57608 16.2705 8.80405 16.4983C9.1121 16.8068 9.91404 16.8887 9.91404 16.8887C9.91404 16.8887 9.83194 16.087 9.52366 15.7787C9.42546 15.6804 9.31693 15.6073 9.20801 15.5559Z" fill="url(#paint0_linear)"/>
<path d="M15.7413 11.9801C15.5657 11.7595 15.2981 11.4781 14.9734 11.2925C15.2333 10.6538 15.3325 9.94329 15.2173 9.11668C14.8178 6.59597 12.7917 5.8246 11.4989 6.00235L11.4909 6.00335C11.5304 5.79056 11.4234 5.50682 11.1955 5.27902C10.8874 4.97057 10.0854 4.88867 10.0854 4.88867C10.0854 4.88867 10.1675 5.69041 10.4758 5.99866C10.574 6.09691 10.6826 6.17004 10.7915 6.22138C10.6828 6.27291 10.5741 6.34606 10.476 6.44406C10.1675 6.75254 10.0856 7.55408 10.0856 7.55408C10.0856 7.55408 10.8874 7.47203 11.1955 7.1637C11.4102 6.94901 11.5154 6.68564 11.4942 6.47754C12.4881 6.9665 12.7386 7.50819 12.9178 7.90165C12.9076 7.88784 12.9413 7.93527 12.8952 7.8711C13.0891 8.29898 13.1941 8.73527 13.1144 9.19934C13.0596 9.45665 12.9833 9.65717 12.8935 9.82154C12.648 9.4423 12.231 9.17287 11.9278 9.01709C11.8869 8.99607 11.8369 9.00441 11.8049 9.03768C11.773 9.07077 11.7663 9.12095 11.7889 9.16122C12.0651 9.65602 12.04 10.2463 11.9844 10.6137C11.868 10.6803 11.7541 10.7495 11.6481 10.8358C10.8401 11.4937 10.4961 12.8331 11.0975 13.4202C11.6985 14.0073 13.2379 13.5629 13.8249 12.9619L13.8424 12.944C14.0962 12.6844 14.3221 12.4167 14.5156 12.1367C14.842 12.0595 15.2415 12.0206 15.6273 12.1446C15.6711 12.1589 15.7191 12.1425 15.7452 12.1046C15.7715 12.0668 15.7699 12.0161 15.7413 11.9801Z" fill="url(#paint1_linear)"/>
</g>
</g>
<defs>
<linearGradient id="paint0_linear" x1="7.07494" y1="8.08142" x2="7.07494" y2="16.8887" gradientUnits="userSpaceOnUse">
<stop stop-color="#99CEFA"/>
<stop offset="1" stop-color="#68BBFF"/>
</linearGradient>
<linearGradient id="paint1_linear" x1="12.9247" y1="4.88867" x2="12.9247" y2="13.6959" gradientUnits="userSpaceOnUse">
<stop stop-color="#99CEFA"/>
<stop offset="1" stop-color="#68BBFF"/>
</linearGradient>
<clipPath id="clip0">
<rect width="20" height="20" fill="white" transform="translate(0 0.888672)"/>
</clipPath>
<clipPath id="clip1">
<rect width="12" height="12" fill="white" transform="translate(4 4.88867)"/>
</clipPath>
</defs>
</svg>
