<svg width="12" height="9" xmlns="http://www.w3.org/2000/svg" fill="none">

 <g>
  <title>Layer 1</title>
  <path id="svg_1" fill="#e21ab0" d="m24.40351,5.63689l4.31667,4.31667c0.65,0.65 1.7,0.65 2.35,0l4.31664,-4.31667c1.05,-1.05 0.3,-2.85 -1.1833,-2.85l-8.63334,0c-1.48334,0 -2.21667,1.8 -1.16667,2.85z"/>
  <path stroke="null" id="svg_3" d="m1.60892,3.12541l2.80274,0l0,-2.73267l2.87508,0l0,2.73267l2.80274,0l0,2.8032l-2.80274,0l0,2.73267l-2.87508,0l0,-2.73267l-2.80274,0l0,-2.8032z" fill="#353591"/>
  <path stroke="null" id="svg_6" d="m11.87034,9.09874l0.50884,-1.27211l2.03538,-0.31803l-2.54422,1.59014l-12.7208,0l0,-9.54064l15.26502,0l0,7.9505" fill="#353591"/>
  <path id="svg_7" d="m8.97629,6.80369l0.0212,-0.01885l0.08481,-0.00471l-0.10601,0.02356l-0.53003,0l0,-0.14134l0.63604,0l0,0.11778" stroke="null" fill="#353591"/>
  <path id="svg_8" d="m5.69526,5.33962l0.00236,-0.19867l0.00942,-0.04967l-0.01178,0.24834l-0.05889,0l0,-1.49l0.07067,0l0,1.24166" stroke="null" fill="#353591"/>
  <path id="svg_9" d="m1.29902,6.04316l0.00707,-0.01885l0.02827,-0.00471l-0.03534,0.02356l-0.17668,0l0,-0.14134l0.21201,0l0,0.11779" stroke="null" fill="#353591"/>
 </g>
</svg>